<mxfile host="app.diagrams.net" agent="Mozilla/5.0 (Windows NT 10.0; Win64; x64) AppleWebKit/537.36 (KHTML, like Gecko) Chrome/133.0.0.0 Safari/537.36 Edg/133.0.0.0" version="26.0.16">
  <diagram name="Страница — 1" id="bm-ooppgEGwWxleXjjFo">
    <mxGraphModel dx="2409" dy="686" grid="1" gridSize="10" guides="1" tooltips="1" connect="1" arrows="1" fold="1" page="1" pageScale="1" pageWidth="1169" pageHeight="827" math="0" shadow="0">
      <root>
        <mxCell id="0" />
        <mxCell id="1" parent="0" />
        <mxCell id="WFBCxs7X10miOEiuouxt-1" value="Неавторизованный пользователь" style="shape=umlActor;verticalLabelPosition=bottom;verticalAlign=top;html=1;outlineConnect=0;" vertex="1" parent="1">
          <mxGeometry x="340" y="280" width="30" height="60" as="geometry" />
        </mxCell>
        <mxCell id="WFBCxs7X10miOEiuouxt-3" style="edgeStyle=orthogonalEdgeStyle;rounded=0;orthogonalLoop=1;jettySize=auto;html=1;" edge="1" parent="1" source="WFBCxs7X10miOEiuouxt-2" target="WFBCxs7X10miOEiuouxt-1">
          <mxGeometry relative="1" as="geometry" />
        </mxCell>
        <mxCell id="WFBCxs7X10miOEiuouxt-62" style="rounded=0;orthogonalLoop=1;jettySize=auto;html=1;exitX=1;exitY=0.3333333333333333;exitDx=0;exitDy=0;exitPerimeter=0;entryX=0;entryY=0.5;entryDx=0;entryDy=0;endArrow=none;startFill=0;" edge="1" parent="1" source="WFBCxs7X10miOEiuouxt-2" target="WFBCxs7X10miOEiuouxt-61">
          <mxGeometry relative="1" as="geometry" />
        </mxCell>
        <mxCell id="WFBCxs7X10miOEiuouxt-2" value="авторизованный пользователь" style="shape=umlActor;verticalLabelPosition=bottom;verticalAlign=top;html=1;outlineConnect=0;" vertex="1" parent="1">
          <mxGeometry x="539" y="280" width="30" height="60" as="geometry" />
        </mxCell>
        <mxCell id="WFBCxs7X10miOEiuouxt-5" style="rounded=0;orthogonalLoop=1;jettySize=auto;html=1;exitX=1;exitY=1;exitDx=0;exitDy=0;endArrow=none;startFill=0;" edge="1" parent="1" source="WFBCxs7X10miOEiuouxt-4" target="WFBCxs7X10miOEiuouxt-1">
          <mxGeometry relative="1" as="geometry" />
        </mxCell>
        <mxCell id="WFBCxs7X10miOEiuouxt-8" style="rounded=0;orthogonalLoop=1;jettySize=auto;html=1;exitX=1;exitY=0;exitDx=0;exitDy=0;entryX=0.5;entryY=1;entryDx=0;entryDy=0;dashed=1;" edge="1" parent="1" source="WFBCxs7X10miOEiuouxt-4" target="WFBCxs7X10miOEiuouxt-7">
          <mxGeometry relative="1" as="geometry" />
        </mxCell>
        <mxCell id="WFBCxs7X10miOEiuouxt-14" value="включить" style="edgeLabel;html=1;align=center;verticalAlign=middle;resizable=0;points=[];" vertex="1" connectable="0" parent="WFBCxs7X10miOEiuouxt-8">
          <mxGeometry x="-0.0445" relative="1" as="geometry">
            <mxPoint as="offset" />
          </mxGeometry>
        </mxCell>
        <mxCell id="WFBCxs7X10miOEiuouxt-4" value="выполнение входа" style="ellipse;whiteSpace=wrap;html=1;" vertex="1" parent="1">
          <mxGeometry x="140" y="210" width="120" height="50" as="geometry" />
        </mxCell>
        <mxCell id="WFBCxs7X10miOEiuouxt-9" style="rounded=0;orthogonalLoop=1;jettySize=auto;html=1;exitX=0.5;exitY=1;exitDx=0;exitDy=0;entryX=0;entryY=0;entryDx=0;entryDy=0;dashed=1;" edge="1" parent="1" source="WFBCxs7X10miOEiuouxt-6" target="WFBCxs7X10miOEiuouxt-4">
          <mxGeometry relative="1" as="geometry" />
        </mxCell>
        <mxCell id="WFBCxs7X10miOEiuouxt-13" value="расширить" style="edgeLabel;html=1;align=center;verticalAlign=middle;resizable=0;points=[];" vertex="1" connectable="0" parent="WFBCxs7X10miOEiuouxt-9">
          <mxGeometry x="-0.1746" relative="1" as="geometry">
            <mxPoint as="offset" />
          </mxGeometry>
        </mxCell>
        <mxCell id="WFBCxs7X10miOEiuouxt-6" value="регистрация" style="ellipse;whiteSpace=wrap;html=1;" vertex="1" parent="1">
          <mxGeometry x="30" y="140" width="120" height="50" as="geometry" />
        </mxCell>
        <mxCell id="WFBCxs7X10miOEiuouxt-7" value="авторизация" style="ellipse;whiteSpace=wrap;html=1;" vertex="1" parent="1">
          <mxGeometry x="230" y="140" width="120" height="50" as="geometry" />
        </mxCell>
        <mxCell id="WFBCxs7X10miOEiuouxt-11" style="rounded=0;orthogonalLoop=1;jettySize=auto;html=1;exitX=1;exitY=0;exitDx=0;exitDy=0;endArrow=none;startFill=0;" edge="1" parent="1" source="WFBCxs7X10miOEiuouxt-10" target="WFBCxs7X10miOEiuouxt-1">
          <mxGeometry relative="1" as="geometry" />
        </mxCell>
        <mxCell id="WFBCxs7X10miOEiuouxt-22" style="rounded=0;orthogonalLoop=1;jettySize=auto;html=1;exitX=0;exitY=0.5;exitDx=0;exitDy=0;entryX=1;entryY=0.5;entryDx=0;entryDy=0;dashed=1;" edge="1" parent="1" source="WFBCxs7X10miOEiuouxt-10" target="WFBCxs7X10miOEiuouxt-21">
          <mxGeometry relative="1" as="geometry" />
        </mxCell>
        <mxCell id="WFBCxs7X10miOEiuouxt-23" value="включить" style="edgeLabel;html=1;align=center;verticalAlign=middle;resizable=0;points=[];" vertex="1" connectable="0" parent="WFBCxs7X10miOEiuouxt-22">
          <mxGeometry relative="1" as="geometry">
            <mxPoint as="offset" />
          </mxGeometry>
        </mxCell>
        <mxCell id="WFBCxs7X10miOEiuouxt-25" style="rounded=0;orthogonalLoop=1;jettySize=auto;html=1;exitX=0;exitY=0.5;exitDx=0;exitDy=0;entryX=1;entryY=0.5;entryDx=0;entryDy=0;dashed=1;" edge="1" parent="1" source="WFBCxs7X10miOEiuouxt-10" target="WFBCxs7X10miOEiuouxt-24">
          <mxGeometry relative="1" as="geometry" />
        </mxCell>
        <mxCell id="WFBCxs7X10miOEiuouxt-29" value="включить" style="edgeLabel;html=1;align=center;verticalAlign=middle;resizable=0;points=[];" vertex="1" connectable="0" parent="WFBCxs7X10miOEiuouxt-25">
          <mxGeometry x="0.2182" y="2" relative="1" as="geometry">
            <mxPoint as="offset" />
          </mxGeometry>
        </mxCell>
        <mxCell id="WFBCxs7X10miOEiuouxt-28" style="rounded=0;orthogonalLoop=1;jettySize=auto;html=1;exitX=0;exitY=0.5;exitDx=0;exitDy=0;entryX=1;entryY=0.5;entryDx=0;entryDy=0;dashed=1;" edge="1" parent="1" source="WFBCxs7X10miOEiuouxt-10" target="WFBCxs7X10miOEiuouxt-27">
          <mxGeometry relative="1" as="geometry" />
        </mxCell>
        <mxCell id="WFBCxs7X10miOEiuouxt-30" value="включить" style="edgeLabel;html=1;align=center;verticalAlign=middle;resizable=0;points=[];" vertex="1" connectable="0" parent="WFBCxs7X10miOEiuouxt-28">
          <mxGeometry x="0.3336" y="-2" relative="1" as="geometry">
            <mxPoint as="offset" />
          </mxGeometry>
        </mxCell>
        <mxCell id="WFBCxs7X10miOEiuouxt-72" style="rounded=0;orthogonalLoop=1;jettySize=auto;html=1;exitX=0.5;exitY=1;exitDx=0;exitDy=0;entryX=0.5;entryY=0;entryDx=0;entryDy=0;dashed=1;endArrow=none;startFill=0;" edge="1" parent="1" source="WFBCxs7X10miOEiuouxt-10" target="WFBCxs7X10miOEiuouxt-71">
          <mxGeometry relative="1" as="geometry" />
        </mxCell>
        <mxCell id="WFBCxs7X10miOEiuouxt-73" value="включить" style="edgeLabel;html=1;align=center;verticalAlign=middle;resizable=0;points=[];" vertex="1" connectable="0" parent="WFBCxs7X10miOEiuouxt-72">
          <mxGeometry x="0.1545" y="-1" relative="1" as="geometry">
            <mxPoint as="offset" />
          </mxGeometry>
        </mxCell>
        <mxCell id="WFBCxs7X10miOEiuouxt-10" value="просмотр каталога игр" style="ellipse;whiteSpace=wrap;html=1;" vertex="1" parent="1">
          <mxGeometry x="130" y="374" width="120" height="56" as="geometry" />
        </mxCell>
        <mxCell id="WFBCxs7X10miOEiuouxt-16" style="rounded=0;orthogonalLoop=1;jettySize=auto;html=1;exitX=1;exitY=1;exitDx=0;exitDy=0;entryX=0;entryY=0.5;entryDx=0;entryDy=0;dashed=1;endArrow=none;startFill=1;startArrow=classic;" edge="1" parent="1" source="WFBCxs7X10miOEiuouxt-15" target="WFBCxs7X10miOEiuouxt-10">
          <mxGeometry relative="1" as="geometry" />
        </mxCell>
        <mxCell id="WFBCxs7X10miOEiuouxt-17" value="включить" style="edgeLabel;html=1;align=center;verticalAlign=middle;resizable=0;points=[];" vertex="1" connectable="0" parent="WFBCxs7X10miOEiuouxt-16">
          <mxGeometry x="0.1876" y="-1" relative="1" as="geometry">
            <mxPoint y="-1" as="offset" />
          </mxGeometry>
        </mxCell>
        <mxCell id="WFBCxs7X10miOEiuouxt-15" value="поиск игры&lt;div&gt;по названию&lt;/div&gt;" style="ellipse;whiteSpace=wrap;html=1;" vertex="1" parent="1">
          <mxGeometry x="-30" y="320" width="120" height="40" as="geometry" />
        </mxCell>
        <mxCell id="WFBCxs7X10miOEiuouxt-21" value="сортировка по рейтингу" style="ellipse;whiteSpace=wrap;html=1;" vertex="1" parent="1">
          <mxGeometry x="-90" y="374" width="120" height="40" as="geometry" />
        </mxCell>
        <mxCell id="WFBCxs7X10miOEiuouxt-24" value="сортировка по жанру" style="ellipse;whiteSpace=wrap;html=1;" vertex="1" parent="1">
          <mxGeometry x="-90" y="440" width="120" height="30" as="geometry" />
        </mxCell>
        <mxCell id="WFBCxs7X10miOEiuouxt-27" value="сортировка по количеству отзывов" style="ellipse;whiteSpace=wrap;html=1;" vertex="1" parent="1">
          <mxGeometry x="-90" y="480" width="120" height="40" as="geometry" />
        </mxCell>
        <mxCell id="WFBCxs7X10miOEiuouxt-34" style="rounded=0;orthogonalLoop=1;jettySize=auto;html=1;exitX=0.5;exitY=0;exitDx=0;exitDy=0;entryX=0.5;entryY=1;entryDx=0;entryDy=0;dashed=1;endArrow=none;startFill=1;startArrow=classic;" edge="1" parent="1" source="WFBCxs7X10miOEiuouxt-33" target="WFBCxs7X10miOEiuouxt-10">
          <mxGeometry relative="1" as="geometry" />
        </mxCell>
        <mxCell id="WFBCxs7X10miOEiuouxt-60" value="включить" style="edgeLabel;html=1;align=center;verticalAlign=middle;resizable=0;points=[];" vertex="1" connectable="0" parent="WFBCxs7X10miOEiuouxt-34">
          <mxGeometry x="0.1514" relative="1" as="geometry">
            <mxPoint as="offset" />
          </mxGeometry>
        </mxCell>
        <mxCell id="WFBCxs7X10miOEiuouxt-33" value="просмотр информации о игре" style="ellipse;whiteSpace=wrap;html=1;" vertex="1" parent="1">
          <mxGeometry x="10" y="510" width="120" height="50" as="geometry" />
        </mxCell>
        <mxCell id="WFBCxs7X10miOEiuouxt-51" style="rounded=0;orthogonalLoop=1;jettySize=auto;html=1;exitX=1;exitY=0.5;exitDx=0;exitDy=0;entryX=0;entryY=0.5;entryDx=0;entryDy=0;dashed=1;" edge="1" parent="1" source="WFBCxs7X10miOEiuouxt-35" target="WFBCxs7X10miOEiuouxt-49">
          <mxGeometry relative="1" as="geometry" />
        </mxCell>
        <mxCell id="WFBCxs7X10miOEiuouxt-57" value="включить" style="edgeLabel;html=1;align=center;verticalAlign=middle;resizable=0;points=[];" vertex="1" connectable="0" parent="WFBCxs7X10miOEiuouxt-51">
          <mxGeometry x="-0.3058" y="1" relative="1" as="geometry">
            <mxPoint as="offset" />
          </mxGeometry>
        </mxCell>
        <mxCell id="WFBCxs7X10miOEiuouxt-35" value="просмотр личного кабинета" style="ellipse;whiteSpace=wrap;html=1;" vertex="1" parent="1">
          <mxGeometry x="525" y="120" width="120" height="45" as="geometry" />
        </mxCell>
        <mxCell id="WFBCxs7X10miOEiuouxt-37" style="rounded=0;orthogonalLoop=1;jettySize=auto;html=1;exitX=0.5;exitY=1;exitDx=0;exitDy=0;entryX=0.5;entryY=0;entryDx=0;entryDy=0;entryPerimeter=0;endArrow=none;startFill=0;" edge="1" parent="1" source="WFBCxs7X10miOEiuouxt-35" target="WFBCxs7X10miOEiuouxt-2">
          <mxGeometry relative="1" as="geometry" />
        </mxCell>
        <mxCell id="WFBCxs7X10miOEiuouxt-38" value="запускать игры" style="ellipse;whiteSpace=wrap;html=1;" vertex="1" parent="1">
          <mxGeometry x="670" y="320" width="120" height="50" as="geometry" />
        </mxCell>
        <mxCell id="WFBCxs7X10miOEiuouxt-39" style="rounded=0;orthogonalLoop=1;jettySize=auto;html=1;exitX=0;exitY=0.5;exitDx=0;exitDy=0;entryX=1;entryY=0.3333333333333333;entryDx=0;entryDy=0;entryPerimeter=0;endArrow=none;startFill=0;" edge="1" parent="1" source="WFBCxs7X10miOEiuouxt-38" target="WFBCxs7X10miOEiuouxt-2">
          <mxGeometry relative="1" as="geometry" />
        </mxCell>
        <mxCell id="WFBCxs7X10miOEiuouxt-43" style="rounded=0;orthogonalLoop=1;jettySize=auto;html=1;exitX=1;exitY=1;exitDx=0;exitDy=0;entryX=0;entryY=0;entryDx=0;entryDy=0;dashed=1;endArrow=none;endFill=1;startArrow=classic;startFill=1;" edge="1" parent="1" source="WFBCxs7X10miOEiuouxt-40" target="WFBCxs7X10miOEiuouxt-35">
          <mxGeometry relative="1" as="geometry" />
        </mxCell>
        <mxCell id="WFBCxs7X10miOEiuouxt-46" value="включить" style="edgeLabel;html=1;align=center;verticalAlign=middle;resizable=0;points=[];" vertex="1" connectable="0" parent="WFBCxs7X10miOEiuouxt-43">
          <mxGeometry x="-0.0608" y="1" relative="1" as="geometry">
            <mxPoint as="offset" />
          </mxGeometry>
        </mxCell>
        <mxCell id="WFBCxs7X10miOEiuouxt-40" value="просмотр личных данных" style="ellipse;whiteSpace=wrap;html=1;" vertex="1" parent="1">
          <mxGeometry x="419" y="20" width="120" height="40" as="geometry" />
        </mxCell>
        <mxCell id="WFBCxs7X10miOEiuouxt-44" style="rounded=0;orthogonalLoop=1;jettySize=auto;html=1;exitX=0.5;exitY=1;exitDx=0;exitDy=0;entryX=0.5;entryY=0;entryDx=0;entryDy=0;dashed=1;" edge="1" parent="1" source="WFBCxs7X10miOEiuouxt-42" target="WFBCxs7X10miOEiuouxt-35">
          <mxGeometry relative="1" as="geometry">
            <mxPoint x="585" y="110" as="targetPoint" />
          </mxGeometry>
        </mxCell>
        <mxCell id="WFBCxs7X10miOEiuouxt-47" value="расширить" style="edgeLabel;html=1;align=center;verticalAlign=middle;resizable=0;points=[];" vertex="1" connectable="0" parent="WFBCxs7X10miOEiuouxt-44">
          <mxGeometry x="-0.115" y="3" relative="1" as="geometry">
            <mxPoint as="offset" />
          </mxGeometry>
        </mxCell>
        <mxCell id="WFBCxs7X10miOEiuouxt-42" value="редактирование личных данных" style="ellipse;whiteSpace=wrap;html=1;" vertex="1" parent="1">
          <mxGeometry x="560" y="20" width="120" height="40" as="geometry" />
        </mxCell>
        <mxCell id="WFBCxs7X10miOEiuouxt-49" value="выход из личного кабинета" style="ellipse;whiteSpace=wrap;html=1;" vertex="1" parent="1">
          <mxGeometry x="750" y="120" width="120" height="43" as="geometry" />
        </mxCell>
        <mxCell id="WFBCxs7X10miOEiuouxt-53" style="rounded=0;orthogonalLoop=1;jettySize=auto;html=1;exitX=0;exitY=0.5;exitDx=0;exitDy=0;entryX=1;entryY=0.5;entryDx=0;entryDy=0;dashed=1;" edge="1" parent="1" source="WFBCxs7X10miOEiuouxt-50" target="WFBCxs7X10miOEiuouxt-49">
          <mxGeometry relative="1" as="geometry" />
        </mxCell>
        <mxCell id="WFBCxs7X10miOEiuouxt-58" value="расширить" style="edgeLabel;html=1;align=center;verticalAlign=middle;resizable=0;points=[];" vertex="1" connectable="0" parent="WFBCxs7X10miOEiuouxt-53">
          <mxGeometry x="-0.1446" y="-1" relative="1" as="geometry">
            <mxPoint as="offset" />
          </mxGeometry>
        </mxCell>
        <mxCell id="WFBCxs7X10miOEiuouxt-50" value="подтверждение выхода" style="ellipse;whiteSpace=wrap;html=1;" vertex="1" parent="1">
          <mxGeometry x="960" y="122" width="120" height="43" as="geometry" />
        </mxCell>
        <mxCell id="WFBCxs7X10miOEiuouxt-61" value="оставлять отзыв и оценку" style="ellipse;whiteSpace=wrap;html=1;" vertex="1" parent="1">
          <mxGeometry x="645" y="260" width="120" height="50" as="geometry" />
        </mxCell>
        <mxCell id="WFBCxs7X10miOEiuouxt-65" style="edgeStyle=orthogonalEdgeStyle;rounded=0;orthogonalLoop=1;jettySize=auto;html=1;exitX=0;exitY=0.5;exitDx=0;exitDy=0;entryX=1;entryY=0.5;entryDx=0;entryDy=0;endArrow=none;startFill=1;startArrow=classic;dashed=1;" edge="1" parent="1" source="WFBCxs7X10miOEiuouxt-64" target="WFBCxs7X10miOEiuouxt-61">
          <mxGeometry relative="1" as="geometry" />
        </mxCell>
        <mxCell id="WFBCxs7X10miOEiuouxt-66" value="включить" style="edgeLabel;html=1;align=center;verticalAlign=middle;resizable=0;points=[];" vertex="1" connectable="0" parent="WFBCxs7X10miOEiuouxt-65">
          <mxGeometry x="-0.005" y="4" relative="1" as="geometry">
            <mxPoint as="offset" />
          </mxGeometry>
        </mxCell>
        <mxCell id="WFBCxs7X10miOEiuouxt-68" style="rounded=0;orthogonalLoop=1;jettySize=auto;html=1;exitX=1;exitY=0;exitDx=0;exitDy=0;entryX=0;entryY=1;entryDx=0;entryDy=0;endArrow=none;endFill=1;dashed=1;startFill=1;startArrow=classic;" edge="1" parent="1" source="WFBCxs7X10miOEiuouxt-64" target="WFBCxs7X10miOEiuouxt-67">
          <mxGeometry relative="1" as="geometry" />
        </mxCell>
        <mxCell id="WFBCxs7X10miOEiuouxt-69" value="расширить" style="edgeLabel;html=1;align=center;verticalAlign=middle;resizable=0;points=[];" vertex="1" connectable="0" parent="WFBCxs7X10miOEiuouxt-68">
          <mxGeometry x="0.2834" relative="1" as="geometry">
            <mxPoint as="offset" />
          </mxGeometry>
        </mxCell>
        <mxCell id="WFBCxs7X10miOEiuouxt-64" value="редактировать свой отзыв и оценку" style="ellipse;whiteSpace=wrap;html=1;" vertex="1" parent="1">
          <mxGeometry x="860" y="263.75" width="120" height="46.25" as="geometry" />
        </mxCell>
        <mxCell id="WFBCxs7X10miOEiuouxt-67" value="удалять свой отзыв и оценку" style="ellipse;whiteSpace=wrap;html=1;" vertex="1" parent="1">
          <mxGeometry x="980" y="200" width="140" height="40" as="geometry" />
        </mxCell>
        <mxCell id="WFBCxs7X10miOEiuouxt-71" value="просматривать таблицу лидеров" style="ellipse;whiteSpace=wrap;html=1;" vertex="1" parent="1">
          <mxGeometry x="140" y="515" width="120" height="45" as="geometry" />
        </mxCell>
        <mxCell id="WFBCxs7X10miOEiuouxt-75" style="rounded=0;orthogonalLoop=1;jettySize=auto;html=1;exitX=0;exitY=0;exitDx=0;exitDy=0;endArrow=none;startFill=0;startArrow=none;" edge="1" parent="1" source="WFBCxs7X10miOEiuouxt-74" target="WFBCxs7X10miOEiuouxt-2">
          <mxGeometry relative="1" as="geometry" />
        </mxCell>
        <mxCell id="WFBCxs7X10miOEiuouxt-74" value="просматривать список любимых игр" style="ellipse;whiteSpace=wrap;html=1;" vertex="1" parent="1">
          <mxGeometry x="670" y="414" width="120" height="50" as="geometry" />
        </mxCell>
        <mxCell id="WFBCxs7X10miOEiuouxt-77" style="edgeStyle=orthogonalEdgeStyle;rounded=0;orthogonalLoop=1;jettySize=auto;html=1;exitX=0;exitY=0.5;exitDx=0;exitDy=0;entryX=1;entryY=0.5;entryDx=0;entryDy=0;endArrow=none;startFill=1;startArrow=classic;dashed=1;" edge="1" parent="1" source="WFBCxs7X10miOEiuouxt-76" target="WFBCxs7X10miOEiuouxt-74">
          <mxGeometry relative="1" as="geometry" />
        </mxCell>
        <mxCell id="WFBCxs7X10miOEiuouxt-78" value="включить" style="edgeLabel;html=1;align=center;verticalAlign=middle;resizable=0;points=[];" vertex="1" connectable="0" parent="WFBCxs7X10miOEiuouxt-77">
          <mxGeometry x="0.1764" y="-3" relative="1" as="geometry">
            <mxPoint as="offset" />
          </mxGeometry>
        </mxCell>
        <mxCell id="WFBCxs7X10miOEiuouxt-76" value="редактировать список любимых игр" style="ellipse;whiteSpace=wrap;html=1;" vertex="1" parent="1">
          <mxGeometry x="860" y="419" width="120" height="40" as="geometry" />
        </mxCell>
      </root>
    </mxGraphModel>
  </diagram>
</mxfile>
